<?xml version="1.0" encoding="utf-8"?>
<!-- Generator: Adobe Illustrator 22.1.0, SVG Export Plug-In . SVG Version: 6.00 Build 0)  -->
<svg version="1.1" id="Layer_1" xmlns="http://www.w3.org/2000/svg" xmlns:xlink="http://www.w3.org/1999/xlink" x="0px" y="0px"
	 viewBox="0 0 112 112" style="enable-background:new 0 0 112 112;" xml:space="preserve">
<style type="text/css">
	.st0{fill:none;stroke:#111111;stroke-width:14;stroke-linecap:square;}
	.st1{fill:none;stroke:#FFFFFF;stroke-width:10;stroke-linecap:square;}
</style>
<title  id="microphoneIconTitle">Microphone (Voice input)</title>
<g>
	<path class="st0" d="M79.3,56c0,12.9-10.4,23.3-23.3,23.3S32.7,68.9,32.7,56 M56,79.3V98"/>
	<path class="st1" d="M79.3,56c0,12.9-10.4,23.3-23.3,23.3S32.7,68.9,32.7,56 M56,79.3V98"/>
</g>
<g>
	<path class="st0" d="M56,18.7L56,18.7c5.2,0,9.3,4.2,9.3,9.3v28c0,5.2-4.2,9.3-9.3,9.3l0,0c-5.2,0-9.3-4.2-9.3-9.3V28
		C46.7,22.8,50.8,18.7,56,18.7z"/>
	<path class="st1" d="M56,18.7L56,18.7c5.2,0,9.3,4.2,9.3,9.3v28c0,5.2-4.2,9.3-9.3,9.3l0,0c-5.2,0-9.3-4.2-9.3-9.3V28
		C46.7,22.8,50.8,18.7,56,18.7z"/>
</g>
</svg>
